[Header]
FileType HTR
DataType HTRS
FileVersion 1
NumSegments 22
NumFrames 4
DataFrameRate 24
EulerRotationOrder ZYX
CalibrationUnits mm
RotationUnits Degrees
GlobalAxisofGravity Y
BoneLengthAxis Y
ScaleFactor 1.0
[SegmentNames&Hierarchy]
reference	GLOBAL
Hips	reference
Spine	Hips
Spine1	Spine
Neck	Spine1
Head	Neck
LeftShoulder	Spine1
LeftArm	LeftShoulder
LeftForeArm	LeftArm
LeftHand	LeftForeArm
RightShoulder	Spine1
RightArm	RightShoulder
RightForeArm	RightArm
RightHand	RightForeArm
LeftUpLeg	Hips
LeftLeg	LeftUpLeg
LeftFoot	LeftLeg
LeftToeBase	LeftFoot
RightUpLeg	Hips
RightLeg	RightUpLeg
RightFoot	RightLeg
RightToeBase	RightFoot
[BasePosition]
reference	0	0	0	0	0	0	1
Hips	0	0	0	0	0	0	1
Spine	0	0	0	0	-0	90	1
Spine1	0	0	0	0	0	0	1
Neck	0	0	0	-7.352430803	-7.352430803	90	1
Head	0	0	0	0	-0	90	1
LeftShoulder	0	0	0	0	0	0	1
LeftArm	0	0	0	0	0	0	1
LeftForeArm	0	0	0	0	0	0	1
LeftHand	0	0	0	0	0	0	1
RightShoulder	0	0	0	0	-0	180	1
RightArm	0	0	0	0	-0	180	1
RightForeArm	0	0	0	0	-0	180	1
RightHand	0	0	0	0	-0	180	1
LeftUpLeg	0	0	0	0	-0	-90	1
LeftLeg	0	0	0	0	-0	-90	1
LeftFoot	0	0	0	66.57150701	-66.57150701	-90	1
LeftToeBase	0	0	0	0	-90	0	1
RightUpLeg	0	0	0	0	-0	-90	1
RightLeg	0	0	0	0	-0	-90	1
RightFoot	0	0	0	66.57150701	-66.57150701	-90	1
RightToeBase	0	0	0	0	-90	0	1
[reference]
67	0	0	0	0	-0	0	1.0
68	0	0	0	0	-0	0	1.0
69	0	0	0	0	-0	0	1.0
70	0	0	0	0	-0	0	1.0
[Hips]
67	9.013730049	8.477860451	-5.816554546	-177.1919403	-116.2338181	175.4306488	1.0
68	9.171420097	8.583607674	-5.893520355	-178.330368	-117.8110046	177.8901215	1.0
69	9.308742523	8.706857681	-5.961667061	-178.3573151	-115.8955536	179.1542969	1.0
70	9.443570137	8.726888657	-6.007709503	-179.3854218	-115.7790146	180.8756409	1.0
[Spine]
67	0	0.7478299737	0	-10.45015717	-5.864221573	-85.4592514	1.0
68	0	0.7478299737	0	-5.876989365	-4.196247578	-87.51596832	1.0
69	0	0.7478299737	0	-6.549063206	-4.187763214	-88.40013123	1.0
70	0	0.7478299737	0	-7.905664444	-5.462267876	-88.27957916	1.0
[Spine1]
67	0	2.049309969	0	8.872422218	-0.6826345921	-1.856476426	1.0
68	0	2.049309969	0	9.142288208	-1.527597785	-1.702493548	1.0
69	0	2.049309969	0	6.808311462	-1.318035603	-1.829605818	1.0
70	0	2.049309969	0	6.825433731	-1.75182128	-1.747229099	1.0
[Neck]
67	0	2.231709957	0	-1.63207078	-3.080204487	-95.3160553	1.0
68	0	2.231709957	0	-5.100462914	-0.7370051146	-88.74594116	1.0
69	0	2.231709957	0	-5.813685894	2.033093214	-87.27781677	1.0
70	0	2.231709957	0	-6.304356575	2.920944929	-87.35839081	1.0
[Head]
67	0	1.413589954	0.1823999882	-13.81935883	-0.424552232	-83.02942657	1.0
68	0	1.413589954	0.1823999882	-2.85914278	-4.732963085	-89.86532593	1.0
69	0	1.413589954	0.1823999882	-0.6628956795	-5.061858177	-93.47087097	1.0
70	0	1.413589954	0.1823999882	-0.9277919531	-4.148192883	-93.56183624	1.0
[LeftShoulder]
67	0.3649300039	1.825889945	-0.04271000251	-13.57130527	-9.731654167	3.66977334	1.0
68	0.3649300039	1.825889945	-0.04271000251	-13.51709557	-9.770305634	3.440942526	1.0
69	0.3649300039	1.825889945	-0.04271000251	-12.48533726	-9.883678436	3.227005005	1.0
70	0.3649300039	1.825889945	-0.04271000251	-12.38142109	-9.113546371	2.821151733	1.0
[LeftArm]
67	1.24003005	0	0	48.3769455	5.919203758	-78.99970245	1.0
68	1.24003005	0	0	55.26170349	3.838653803	-80.19406128	1.0
69	1.24003005	0	0	57.71583939	1.538082004	-80.43300629	1.0
70	1.24003005	0	0	60.14936066	-0.997810483	-80.09870911	1.0
[LeftForeArm]
67	2.847419977	0	0	-10.79752064	-20.38353539	0.4040777087	1.0
68	2.847419977	0	0	-11.89012909	-27.67092133	5.911459923	1.0
69	2.847419977	0	0	-10.07723045	-35.15278625	8.934511185	1.0
70	2.847419977	0	0	-12.77899837	-43.14546204	12.71223545	1.0
[LeftHand]
67	2.258270025	0	0	-10.86899662	-6.014870167	2.740727663	1.0
68	2.258270025	0	0	-10.69893456	-6.977544308	4.283267021	1.0
69	2.258270025	0	0	-7.465442181	-10.30112076	2.456777096	1.0
70	2.258270025	0	0	-7.885760307	-11.09364891	1.551116705	1.0
[RightShoulder]
67	-0.3646599948	1.825889945	-0.04271000251	-4.105214596	16.06422997	-182.7243042	1.0
68	-0.3646599948	1.825889945	-0.04271000251	0.1789371073	-0.7048836946	-180.2223816	1.0
69	-0.3646599948	1.825889945	-0.04271000251	0.2608647645	0.3393702805	-180.1035461	1.0
70	-0.3646599948	1.825889945	-0.04271000251	0.2235793769	0.3174870014	-180.0637665	1.0
[RightArm]
67	-1.24003005	0	0	-3.644937515	12.05231857	-107.9812469	1.0
68	-1.24003005	0	0	-4.23478508	10.97652245	-108.2861099	1.0
69	-1.24003005	0	0	-8.636113167	3.62771821	-112.1727219	1.0
70	-1.24003005	0	0	-10.60396957	-1.1380862	-116.8292389	1.0
[RightForeArm]
67	-2.847419977	0	0	29.37639999	7.245800972	201.6016083	1.0
68	-2.847419977	0	0	29.37335587	2.155331373	201.1554871	1.0
69	-2.847419977	0	0	36.55677414	1.677592397	200.1853333	1.0
70	-2.847419977	0	0	70.93373871	1.799305797	198.1860657	1.0
[RightHand]
67	-2.258270025	0	0	27.26127243	8.403487206	169.4520874	1.0
68	-2.258270025	0	0	29.28373146	7.15032959	169.2791138	1.0
69	-2.258270025	0	0	22.06167984	4.174183846	174.0283661	1.0
70	-2.258270025	0	0	3.723505735	3.843548775	194.908783	1.0
[LeftUpLeg]
67	0.9119900465	0	0	-28.77212143	0.8890656233	101.9420624	1.0
68	0.9119900465	0	0	-28.67306519	0.1046120822	101.313591	1.0
69	0.9119900465	0	0	-23.85320663	1.046680927	99.62214661	1.0
70	0.9119900465	0	0	-19.19200516	1.238939643	97.68260193	1.0
[LeftLeg]
67	0	-4.371409893	0	49.71229935	8.064281464	76.49358368	1.0
68	0	-4.371409893	0	54.08839035	9.128870964	76.17840576	1.0
69	0	-4.371409893	0	54.62843704	10.1317215	75.87019348	1.0
70	0	-4.371409893	0	53.75094986	10.98189831	76.92482758	1.0
[LeftFoot]
67	0	-3.918009996	0	-64.10085297	108.2379608	-17.9982605	1.0
68	0	-3.918009996	0	-57.16726303	106.1266632	-13.82339954	1.0
69	0	-3.918009996	0	-50.19822693	104.0489883	-9.104034424	1.0
70	0	-3.918009996	0	-40.3727951	100.9045792	-2.220474482	1.0
[LeftToeBase]
67	0	-0.5927900076	1.367989898	0	0	0	1.0
68	0	-0.5927900076	1.367989898	0	0	0	1.0
69	0	-0.5927900076	1.367989898	0	0	0	1.0
70	0	-0.5927900076	1.367989898	0	0	0	1.0
[RightUpLeg]
67	-0.9119900465	0	0	-3.475733995	-9.148256302	99.39741516	1.0
68	-0.9119900465	0	0	-4.548233986	-11.73517418	99.38342285	1.0
69	-0.9119900465	0	0	-2.708930731	-9.884079933	97.26010132	1.0
70	-0.9119900465	0	0	-1.681203842	-11.16892147	95.75772858	1.0
[RightLeg]
67	0	-4.371409893	0	27.2660141	5.747559547	86.414505	1.0
68	0	-4.371409893	0	21.9503727	6.735489368	86.18185425	1.0
69	0	-4.371409893	0	15.70529556	6.161002159	87.31015015	1.0
70	0	-4.371409893	0	10.5747242	6.516136646	88.16825867	1.0
[RightFoot]
67	0	-3.918009996	0	27.24755859	57.07983398	74.24156189	1.0
68	0	-3.918009996	0	31.72928047	56.77994156	75.64460754	1.0
69	0	-3.918009996	0	31.37506294	59.27700424	71.68241119	1.0
70	0	-3.918009996	0	36.80005646	60.0552597	73.28733063	1.0
[RightToeBase]
67	0	-0.5927900076	1.367989898	0	0	0	1.0
68	0	-0.5927900076	1.367989898	0	0	0	1.0
69	0	-0.5927900076	1.367989898	0	0	0	1.0
70	0	-0.5927900076	1.367989898	0	0	0	1.0
[EndOfFile]
